# xmcd
#
# Track frame offsets:
#	150
#	17247
#	35892
#	53464
#	69397
#	86637
#	102087
#	126865
#	140047
#	158317
#
# Disc length: 2408 seconds
#
# Revision: 1
# Processed by: cddbd v1.5.1PL0 Copyright (c) Steve Scherf et al.
# Submitted via: audiograbber 1.83.01
#
DISCID=7e09660a
DTITLE=Jeff Ferguson - No Secrets
DYEAR=1998
DGENRE=Contemporary Christian
TTITLE0=There is a Reason
TTITLE1=At Your Feet
TTITLE2=I Would Have Been Lost (duet w/ Candy Rans)
TTITLE3=Make a Melody
TTITLE4=I Am an Eagle
TTITLE5=Kickin' Up Sawdust
TTITLE6=Jesus Is in This House
TTITLE7=Praises, Praises
TTITLE8=No Secrets
TTITLE9=Now That I'm Here
EXTD=
EXTT0=
EXTT1=
EXTT2=
EXTT3=
EXTT4=
EXTT5=
EXTT6=
EXTT7=
EXTT8=
EXTT9=
PLAYORDER=
